<svg width="24" height="24" viewBox="0 0 24 24" fill="none" xmlns="http://www.w3.org/2000/svg">
<path d="M15.6117 0V2H1.99723V22H21.9695V8.4H23.9667V22C23.9667 22.5333 23.767 23 23.3675 23.4C22.9681 23.8 22.5021 24 21.9695 24H1.99723C1.46463 24 0.998613 23.8 0.599168 23.4C0.199723 23 0 22.5333 0 22V2C0 1.46667 0.199723 1 0.599168 0.6C0.998613 0.2 1.46463 0 1.99723 0H15.6117ZM21.3037 0V2.7H24V4.7H21.3037V7.4H19.3065V4.7H16.6103V2.7H19.3065V0H21.3037ZM3.99445 18.6H19.9723L7.82247 13.6333L3.99445 18.6ZM1.99723 2V5.7V8.4V22V2Z" fill="#00964A"/>
</svg>
