<svg width="current" height="current" viewBox="0 0 32 32" fill="none" xmlns="http://www.w3.org/2000/svg">
<path d="M23.1111 11.0667V13.7333H8.93333V11.0667H23.1111ZM23.1111 16.7111V19.3778H8.93333V16.7111H23.1111ZM23.1111 22.3556V25.0222H8.93333V22.3556H23.1111ZM28.0889 0V3.91111H32V6.57778H28.0889V10.4889H25.4222V6.57778H21.5111V3.91111H25.4222V0H28.0889ZM20.1778 0V2.66667H2.66667V29.3333H29.3333V11.8222H32V29.3333C32 30.0444 31.7333 30.6667 31.2 31.2C30.6667 31.7333 30.0444 32 29.3333 32H2.66667C1.95556 32 1.33333 31.7333 0.8 31.2C0.266667 30.6667 0 30.0444 0 29.3333V2.66667C0 1.95556 0.266667 1.33333 0.8 0.8C1.33333 0.266667 1.95556 0 2.66667 0H20.1778Z" fill="current"/>
</svg>
