<svg width="54" height="32" viewBox="0 0 54 32" fill="none" xmlns="http://www.w3.org/2000/svg">
<path d="M6.02471 0.170822H0V27.0777L0.00464869 27.08C0.332381 31.1668 3.63528 32.2583 6.02703 31.9514V0.170822H6.02471Z" fill="#00964A"/>
<path d="M9.44617 0.170822H15.4732V27.0777L15.4685 27.08C15.1408 31.1668 11.8379 32.2583 9.44849 31.9514V0.170822H9.44617Z" fill="#00964A"/>
<path d="M24.931 0.0485166C22.5392 -0.258397 19.2317 0.835417 18.9016 4.92222L18.9109 26.9993C19.2386 31.0838 22.5392 32.1799 24.931 31.873V0.0485166Z" fill="#00964A"/>
<path d="M28.2548 0.0485166C30.6442 -0.258397 33.9517 0.835417 34.2795 4.92222L34.2725 27.0016C33.9448 31.0861 30.6442 32.1799 28.2524 31.873V0.0485166H28.2548Z" fill="#00964A"/>
<path d="M44.0533 0.170822H38.0262V27.0777L38.0309 27.08C38.3586 31.1668 41.6615 32.2583 44.0533 31.9514V0.170822Z" fill="#00964A"/>
<path d="M47.4747 0.170822H53.5017V27.0777L53.4971 27.08C53.167 31.1668 49.8665 32.2583 47.4771 31.9514V0.170822H47.4747Z" fill="#00964A"/>
</svg>
